HIERARCHY
ROOT Hips
{
	OFFSET -3.958830 18.904000 13.208200
	CHANNELS 6 Xposition Yposition Zposition Zrotation Yrotation Xrotation 
	JOINT LHipJoint
	{
		OFFSET 0.000000 0.000000 0.000000
		CHANNELS 3 Zrotation Yrotation Xrotation
		JOINT LeftUpLeg
		{
			OFFSET 1.800000 -1.400000 0.085000
			CHANNELS 3 Zrotation Yrotation Xrotation
			JOINT LeftLeg
			{
				OFFSET 2.215000 -6.000000 0.000000
				CHANNELS 3 Zrotation Yrotation Xrotation
				JOINT LeftFoot
				{
					OFFSET 2.500000 -6.900000 0.000000
					CHANNELS 3 Zrotation Yrotation Xrotation
					JOINT LeftToeBase
					{
						OFFSET 0.200000 -0.500000 1.950000
						CHANNELS 3 Zrotation Yrotation Xrotation
						End Site
						{
							OFFSET 0.000000 0.000000 0.000000
						}
					}
				}
			}
		}
	}
	JOINT RHipJoint
	{
		OFFSET 0.000000 0.000000 0.000000
		CHANNELS 3 Zrotation Yrotation Xrotation
		JOINT RightUpLeg
		{
			OFFSET -1.800000 -1.400000 0.085000
			CHANNELS 3 Zrotation Yrotation Xrotation
			JOINT RightLeg
			{
				OFFSET -2.215000 -6.000000 0.000000
				CHANNELS 3 Zrotation Yrotation Xrotation
				JOINT RightFoot
				{
					OFFSET -2.500000 -6.900000 0.000000
					CHANNELS 3 Zrotation Yrotation Xrotation
					JOINT RightToeBase
					{
						OFFSET -0.200000 -0.500000 1.950000
						CHANNELS 3 Zrotation Yrotation Xrotation
						End Site
						{
							OFFSET 0.000000 0.000000 0.000000
						}
					}
				}
			}
		}
	}
	JOINT LowerBack
	{
		OFFSET 0.000000 0.000000 0.000000
		CHANNELS 3 Zrotation Yrotation Xrotation
		JOINT Spine
		{
			OFFSET -0.087000 1.940000 -0.288900
			CHANNELS 3 Zrotation Yrotation Xrotation
			JOINT Spine1
			{
				OFFSET 0.000000 1.950000 0.060000
				CHANNELS 3 Zrotation Yrotation Xrotation
				JOINT Neck
				{
					OFFSET 0.000000 0.000000 0.000000
					CHANNELS 3 Zrotation Yrotation Xrotation
					JOINT Neck1
					{
						OFFSET 0.000000 1.600000 0.340000
						CHANNELS 3 Zrotation Yrotation Xrotation
						JOINT Head
						{
							OFFSET 0.000000 1.667000 -0.240000
							CHANNELS 3 Zrotation Yrotation Xrotation
							End Site
							{
								OFFSET 0.000000 0.000000 0.000000
							}
						}
					}
				}
				JOINT LeftShoulder
				{
					OFFSET 0.000000 0.000000 0.000000
					CHANNELS 3 Zrotation Yrotation Xrotation
					JOINT LeftArm
					{
						OFFSET 2.700000 1.550000 -0.730000
						CHANNELS 3 Zrotation Yrotation Xrotation
						JOINT LeftForeArm
						{
							OFFSET 5.450000 0.000000 0.000000
							CHANNELS 3 Zrotation Yrotation Xrotation
							JOINT LeftHand
							{
								OFFSET 3.450000 0.000000 0.000000
								CHANNELS 3 Zrotation Yrotation Xrotation
								JOINT LeftHandIndex1
								{
									OFFSET 0.750000 0.000000 0.000000
									CHANNELS 3 Zrotation Yrotation Xrotation
									End Site
									{
										OFFSET 0.000000 0.000000 0.000000
									}
								}
							}
						}
					}
				}
				JOINT RightShoulder
				{
					OFFSET 0.000000 0.000000 0.000000
					CHANNELS 3 Zrotation Yrotation Xrotation
					JOINT RightArm
					{
						OFFSET -2.700000 1.550000 -0.730000
						CHANNELS 3 Zrotation Yrotation Xrotation
						JOINT RightForeArm
						{
							OFFSET -5.450000 0.000000 0.000000
							CHANNELS 3 Zrotation Yrotation Xrotation
							JOINT RightHand
							{
								OFFSET -3.450000 0.000000 0.000000
								CHANNELS 3 Zrotation Yrotation Xrotation
								JOINT RightHandIndex1
								{
									OFFSET -0.750000 0.000000 0.000000
									CHANNELS 3 Zrotation Yrotation Xrotation
									End Site
									{
										OFFSET 0.000000 0.000000 0.000000
									}
								}
							}
						}
					}
				}
			}
		}
	}
}
MOTION
Frames: 8
Frame Time: 0.016667
-0.721280 17.070320 -4.974740 -1.096662 -6.942023 -17.861527 -15.082131 12.762739 3.580764 1.584972 -7.461266 -26.002618 10.256871 5.963747 68.141597 0.843155 11.678689 0.632913 -0.100890 -0.308220 -0.296530 18.487558 -9.780929 3.808072 2.723255 11.581783 -22.550011 4.389706 -14.240213 64.425499 -2.423351 -10.158402 0.744583 -0.465640 0.687090 0.931130 -3.939856 -1.886817 -8.520807 7.036454 -7.016912 67.646038 -12.504746 1.743922 0.081826 5.271537 -5.385135 -18.041614 -21.107326 5.802703 50.832421 5.200900 -1.715960 -43.672450 14.536241 -31.817018 -1.249598 27.625232 -20.697738 -13.330276 12.724963 -36.628191 -2.360697 -3.733388 2.756219 1.470170 -0.119280 0.794070 0.307150 -23.987688 39.774748 4.775160 -12.039433 9.865728 -24.297234 -30.151386 50.684896 -8.645098 1.689659 -1.141694 -0.208920 0.587750 0.524250 0.241300 
-0.714290 17.010960 -4.940020 -1.164389 -7.795835 -16.748538 -15.139588 12.713367 3.680071 2.236883 -7.727158 -27.424625 9.373959 6.797453 69.053546 1.013957 11.802042 0.593598 -0.127290 -0.332910 -0.310150 18.463157 -9.530905 3.894004 3.151797 12.161997 -24.004314 4.002336 -14.315716 65.839889 -2.495245 -10.317043 0.713301 -0.554460 0.618150 0.953530 -3.827915 -2.213353 -8.643999 6.210000 -6.461539 67.681860 -11.977994 2.226416 -2.939317 6.062463 -4.657429 -19.925915 -22.000697 7.464678 55.322936 4.980400 -1.192100 -42.174710 13.985394 -32.678468 -0.960492 27.407543 -21.865901 -12.246845 9.567438 -31.352111 -1.057729 -3.650256 2.747634 1.467160 -0.167670 0.853330 0.310940 -24.212233 40.880110 4.737621 -11.643302 10.591639 -23.849845 -29.195965 49.697298 -7.588297 1.769601 -1.119260 -0.132780 0.494390 0.487240 0.267120 
-0.707570 16.871050 -4.872660 -1.263836 -8.718820 -16.410326 -15.247841 12.726760 3.843285 4.174993 -8.176562 -28.419046 6.605188 9.350227 71.307272 1.283009 12.319445 0.427441 -0.095610 -0.287000 -0.274730 18.390193 -9.202835 3.882899 3.864291 12.394858 -24.353062 3.161418 -14.546749 68.208526 -2.624891 -10.632764 0.653012 -0.606130 0.519880 0.961170 -3.578166 -2.864656 -8.770703 5.135381 -5.650626 67.381652 -10.542828 3.040253 -4.584931 6.906767 -3.346932 -22.485047 -22.292695 8.881625 60.455479 5.012210 -1.086070 -39.233720 14.084366 -34.218586 -1.103876 25.997820 -23.184960 -10.289514 6.733075 -19.609680 -0.537476 -3.595815 2.597037 1.447660 -0.221960 0.923830 0.321120 -25.073462 42.437247 4.524821 -12.199138 10.833216 -23.635598 -29.032205 47.333135 -6.490749 1.909425 -1.135080 -0.033660 0.401880 0.413070 0.290350 
-0.707080 16.759960 -4.774920 -1.225244 -12.401383 -17.420808 -15.412461 12.828210 3.947236 8.084409 -7.664580 -27.933335 1.961860 14.302288 73.787707 1.564352 13.416287 0.128499 -0.085680 -0.290780 -0.241470 18.265989 -8.790215 3.856962 5.596238 12.940703 -22.969859 1.346795 -14.137788 71.598136 -2.759418 -11.060015 0.562859 -0.606340 0.494040 0.941500 -3.159976 -3.779750 -8.926888 2.884192 -3.026953 67.092193 -8.215926 4.820576 -3.496055 7.679567 -2.471492 -23.817746 -21.072298 9.366092 62.090884 2.689330 -0.827870 -36.137590 13.090501 -35.316599 -0.175611 22.571374 -20.944053 -8.452422 9.405423 -10.588821 -1.397981 -3.720164 2.362351 1.441700 -0.226940 0.929490 0.332460 -25.070811 44.090529 3.850585 -13.494359 10.967698 -24.499577 -33.950667 48.094556 -8.529254 2.100285 -1.124084 -0.038450 0.398340 0.379940 0.281590 
-0.687840 16.704010 -4.690340 -1.165659 -16.292435 -20.884883 -15.449736 12.799148 4.003005 12.496764 -6.569806 -24.649530 -3.244521 19.911701 74.975310 1.782025 14.636425 -0.211062 -0.000130 -0.172410 -0.206600 18.234555 -8.705027 3.741274 6.346615 13.131772 -19.295353 0.948532 -14.634435 74.271890 -2.886205 -11.632479 0.396475 -0.463080 0.550100 0.964420 -3.041439 -3.876024 -8.943347 3.316082 -2.198629 67.248116 -8.382696 5.385395 3.487121 7.241323 -3.243159 -21.811372 -18.718733 7.691592 55.238415 -0.254920 -0.874650 -35.956320 12.177112 -34.895344 1.368007 23.492341 -16.236633 -7.660049 10.166828 -5.305261 -1.747715 -3.974629 2.206376 1.345980 -0.136440 0.865600 0.345560 -24.806817 44.289749 2.334959 -16.268808 11.400360 -26.380271 -43.521344 46.934853 -13.707979 2.626761 -1.325622 -0.045480 0.441410 0.384000 0.287420 
-0.649920 16.696820 -4.562780 -1.503922 -19.898776 -22.050349 -15.608354 12.539139 4.304384 17.238721 -5.930565 -23.371716 -8.760709 25.599742 74.945427 2.039986 15.697533 -0.495960 0.141490 0.023610 -0.132680 18.155770 -8.302712 3.619645 5.754992 13.612073 -18.675389 1.901308 -16.344515 77.070840 -3.071803 -12.373486 0.203535 -0.322240 0.568750 1.043050 -2.724862 -4.266021 -9.131432 5.338448 -1.046346 63.585139 -6.648079 5.835969 10.541254 6.683901 -3.736130 -18.955338 -14.869832 7.187481 51.497253 -5.576310 0.115590 -35.513250 8.884046 -34.524116 5.330606 21.853870 -11.767161 -6.463355 11.774069 -4.270905 -1.894337 -4.118128 2.305726 1.223420 -0.039550 0.863120 0.399340 -21.657520 43.045175 0.199819 -14.891850 15.362461 -28.378185 -55.687540 47.267426 -22.602443 2.998003 -1.405406 0.025320 0.438750 0.328890 0.318970 
-0.628650 16.739720 -4.388390 -2.000181 -23.023685 -21.069917 -15.771886 12.114765 4.846674 22.572915 -5.657684 -23.415111 -15.323262 31.158281 72.666208 2.285566 16.330024 -0.631300 0.076060 -0.045920 -0.187390 18.085680 -7.872451 3.461870 3.811702 13.725280 -20.216372 3.293302 -18.275474 78.540458 -3.143297 -12.821122 0.140952 -0.379900 0.550390 0.968990 -2.447075 -4.517414 -9.490699 6.297675 -0.393703 59.471310 -4.391735 5.962539 10.628897 6.611304 -3.552050 -19.144591 -13.672696 7.966779 58.495646 -6.693480 0.350060 -33.160040 3.378184 -35.137001 9.884886 17.322088 -9.234800 -4.206775 9.702830 -6.689263 -1.440498 -3.862074 2.356568 1.226080 -0.068590 0.836580 0.394640 -15.632284 43.175969 -0.118676 -8.500621 22.288759 -27.115774 -71.544205 49.153982 -33.989426 2.742582 -0.839967 0.002900 0.443250 0.332060 0.318720 
-0.629460 16.769540 -4.183850 -2.463226 -24.200929 -19.476325 -15.708974 11.497440 5.171815 26.096221 -5.622367 -23.929629 -17.879226 34.228347 72.574799 2.268610 16.858999 -0.751241 0.084520 -0.070860 -0.147420 18.177604 -7.919550 3.466941 -0.609954 13.615639 -23.491732 6.322664 -21.984845 79.721962 -3.264500 -13.618531 -0.059287 -0.308510 0.617550 0.920190 -2.792363 -3.501125 -9.626927 9.803758 -1.838968 52.363418 -4.334581 3.766646 13.756089 5.816437 -3.470257 -17.529250 -11.715490 7.978858 60.821043 -8.560180 0.775140 -31.071360 0.486836 -34.121933 11.355696 12.824388 -10.585588 -1.746717 6.057664 -7.010629 -1.178819 -3.810135 2.220649 1.241070 -0.002400 0.762960 0.395930 -11.403328 40.652926 0.926123 -0.613859 29.216605 -22.985750 -85.728036 46.522485 -44.792155 2.304539 -0.435825 -0.110860 0.543960 0.349820 0.263540 
